<?xml version="1.0" encoding="utf-8"?>
<!-- Generator: Adobe Illustrator 21.0.0, SVG Export Plug-In . SVG Version: 6.00 Build 0)  -->
<svg version="1.1" id="图层_1" xmlns="http://www.w3.org/2000/svg" xmlns:xlink="http://www.w3.org/1999/xlink" x="0px" y="0px"
	 viewBox="0 0 200 200" style="enable-background:new 0 0 200 200;" xml:space="preserve">
<style type="text/css">
	.st0{fill:#FFA53D;}
</style>
<path class="st0" d="M169.4,31.3c-29.2-3.3-51.2-11.2-65.4-23.5l-3.7-3.2l-4,2.9C74.2,23.2,52.3,31.2,31.2,31.2H25v87.5
	c0,26.8,23.6,51.2,72.3,74.4l2.6,1.2l2.6-1.1c48.1-20.7,72.5-45.7,72.5-74.5V31.9L169.4,31.3z M162.5,118.8
	c0,22.8-21,43.6-62.4,61.9c-41.6-20.3-62.6-41.1-62.6-61.9V43.5c20.4-1.3,41.3-9.1,62.2-23.2c15,11.4,36.1,19,62.8,22.7V118.8z"/>
<path class="st0" d="M70.3,91.5C68,89,64,88.7,61.4,91s-2.8,6.2-0.5,8.8l23.8,26.9c2.5,2.8,5.9,4.2,9.4,4.2c3.8,0,7.3-1.7,9.7-4.6
	l38.6-47.4c2.2-2.7,1.8-6.6-0.9-8.8c-2.7-2.2-6.6-1.8-8.8,0.9l-38.6,47.4C94.1,118.5,70.3,91.5,70.3,91.5z"/>
</svg>
