<?xml version="1.0" encoding="utf-8"?>
<!-- Generator: Adobe Illustrator 21.0.0, SVG Export Plug-In . SVG Version: 6.00 Build 0)  -->
<svg version="1.1" id="图层_1" xmlns="http://www.w3.org/2000/svg" xmlns:xlink="http://www.w3.org/1999/xlink" x="0px" y="0px"
	 viewBox="0 0 200 200" style="enable-background:new 0 0 200 200;" xml:space="preserve">
<style type="text/css">
	.st0{fill:#F76B64;}
</style>
<path class="st0" d="M100,125c-3.5,0-6.2,2.8-6.2,6.2V150c0,3.5,2.8,6.2,6.2,6.2c3.5,0,6.2-2.8,6.2-6.2v-18.8
	C106.2,127.8,103.5,125,100,125z M65.1,62.1c0.5,0.5,1.1,0.7,1.8,0.7h26.9v43.4c0,3.5,2.8,6.2,6.2,6.2c3.5,0,6.2-2.8,6.2-6.2V62.8
	h27.3c1.4,0,2.5-1.1,2.5-2.5c0-0.7-0.3-1.3-0.7-1.8L102,25.2c-1-1-2.6-1-3.5,0c0,0,0,0,0,0L65.1,58.6C64.1,59.5,64.1,61.1,65.1,62.1
	C65.1,62.1,65.1,62.1,65.1,62.1L65.1,62.1z"/>
<path class="st0" d="M174.3,36.4l-34-16.8c-3.2-1.4-6.9,0-8.3,3.2c-1.3,3-0.1,6.5,2.7,8l34,16.8v98.2L100,174.7l-68.8-28.8V47.6
	l34-16.8c3.1-1.6,4.2-5.4,2.7-8.4c-1.5-3-5.2-4.2-8.2-2.8l-34,16.8c-4.3,2.1-7,6.4-7,11.2v98.2c0,5.1,3,9.6,7.7,11.5l71.2,29.8
	c1.5,0.7,3.3,0.7,4.8,0l71.2-29.8c4.6-1.9,7.7-6.5,7.7-11.5V47.6C181.3,42.9,178.6,38.5,174.3,36.4z"/>
</svg>
