<?xml version="1.0" encoding="utf-8"?>
<!-- Generator: Adobe Illustrator 21.0.0, SVG Export Plug-In . SVG Version: 6.00 Build 0)  -->
<svg version="1.1" id="图层_1" xmlns="http://www.w3.org/2000/svg" xmlns:xlink="http://www.w3.org/1999/xlink" x="0px" y="0px"
	 viewBox="0 0 200 200" style="enable-background:new 0 0 200 200;" xml:space="preserve">
<style type="text/css">
	.st0{fill:#DB66DB;}
</style>
<path class="st0" d="M187.5,49.5L100,12L12.5,49.5v106.9l87.5,37.2l7.6-3.2h1.6v-0.7l78.3-33.3V49.5z M100,81.4l-22.2-9.4l62.3-28.8
	c0.1-0.1,0.2-0.2,0.4-0.3l24.8,10.7L100,81.4z M125.1,36.3l-62.8,29L34.7,53.5l65.3-28C100,25.5,125.1,36.3,125.1,36.3z M25,63
	l25,10.6v38.8c0,3.5,2.8,6.2,6.2,6.2s6.2-2.8,6.2-6.2V79l0,0l34.1,14.5v85.1L25,148.1V63z M109.2,176.1V91.1L175,63v85.1
	L109.2,176.1z"/>
</svg>
