<?xml version="1.0" encoding="utf-8"?>
<!-- Generator: Adobe Illustrator 21.0.0, SVG Export Plug-In . SVG Version: 6.00 Build 0)  -->
<svg version="1.1" id="图层_1" xmlns="http://www.w3.org/2000/svg" xmlns:xlink="http://www.w3.org/1999/xlink" x="0px" y="0px"
	 viewBox="0 0 200 200" style="enable-background:new 0 0 200 200;" xml:space="preserve">
<style type="text/css">
	.st0{fill:#00D6B9;}
</style>
<path class="st0" d="M87.5,175c3.5,0,6.2,2.8,6.2,6.2s-2.8,6.2-6.2,6.2H31.8c-10.7,0-19.3-8.9-19.3-19.7V32.2
	c0-10.8,8.6-19.7,19.3-19.7h111.3c10.7,0,19.3,8.9,19.3,19.7v35.6c0,3.5-2.8,6.2-6.2,6.2s-6.2-2.8-6.2-6.2V32.2c0-4-3.1-7.2-6.8-7.2
	H31.8c-3.7,0-6.8,3.2-6.8,7.2v135.6c0,4,3.1,7.2,6.8,7.2H87.5z"/>
<path class="st0" d="M143.8,187.5c-27.6,0-50-22.4-50-50s22.4-50,50-50s50,22.4,50,50S171.4,187.5,143.8,187.5z M143.8,175
	c20.7,0,37.5-16.8,37.5-37.5S164.5,100,143.8,100s-37.5,16.8-37.5,37.5S123,175,143.8,175z"/>
<path class="st0" d="M146.9,134.4h15.5c3.5,0,6.2,2.8,6.2,6.2s-2.8,6.2-6.2,6.2h-21.8c-3.5,0-6.2-2.8-6.2-6.2v-18.8
	c0-3.5,2.8-6.2,6.2-6.2s6.2,2.8,6.2,6.2V134.4z M56.2,68.8c-3.5,0-6.2-2.8-6.2-6.2s2.8-6.2,6.2-6.2h62.5c3.5,0,6.2,2.8,6.2,6.2
	s-2.8,6.2-6.2,6.2H56.2z M56.2,118.8c-3.5,0-6.2-2.8-6.2-6.2s2.8-6.2,6.2-6.2h12.5c3.5,0,6.2,2.8,6.2,6.2s-2.8,6.2-6.2,6.2H56.2z"/>
</svg>
