<?xml version="1.0" encoding="utf-8"?>
<!-- Generator: Adobe Illustrator 21.0.0, SVG Export Plug-In . SVG Version: 6.00 Build 0)  -->
<svg version="1.1" id="图层_1" xmlns="http://www.w3.org/2000/svg" xmlns:xlink="http://www.w3.org/1999/xlink" x="0px" y="0px"
	 viewBox="0 0 200 200" style="enable-background:new 0 0 200 200;" xml:space="preserve">
<style type="text/css">
	.st0{fill:#00D6B9;}
</style>
<path class="st0" d="M129.4,131.2c-2.4-2.4-6.4-2.4-8.8,0c-2.4,2.4-2.4,6.4,0,8.8l21.9,21.9c2.4,2.4,6.4,2.4,8.8,0
	c2.4-2.4,2.4-6.4,0-8.8L129.4,131.2z"/>
<path class="st0" d="M139.2,111.6c4.2-26.3-13.7-51.1-40.1-55.3C90.7,54.9,82,55.9,74,59c-3.2,1.2-4.8,4.9-3.6,8.1
	c0.3,0.8,0.8,1.5,1.4,2.2l19.1,19.1c2.4,2.4,2.4,6.4,0,8.8c0,0,0,0,0,0l-6.1,6.1c-2.4,2.4-6.4,2.4-8.8,0c0,0,0,0,0,0L56.8,84.1
	c-2.4-2.4-6.4-2.4-8.8,0c-0.6,0.6-1.1,1.3-1.4,2.1c-9.8,24.8,2.3,52.9,27.1,62.7c8,3.2,16.7,4.1,25.2,2.8l28.5,28.5
	c11.1,11.1,29.1,11.1,40.2,0s11.1-29.1,0-40.2l0,0L139.2,111.6z M158.8,171.4c-6.2,6.2-16.3,6.2-22.5,0L103,138.1l-3.4,0.8
	c-19.3,4.5-38.5-7.5-43-26.8c-0.9-3.7-1.1-7.5-0.8-11.3l11.3,11.3c7.3,7.3,19.2,7.3,26.5,0c0,0,0,0,0,0l6.1-6.1
	c7.3-7.3,7.3-19.2,0-26.5c0,0,0,0,0,0L88.6,68.3c19.7-1.6,37,13,38.6,32.8c0.3,3.8,0,7.5-0.8,11.2l-0.8,3.4l33.2,33.2
	C165,155.1,165,165.2,158.8,171.4L158.8,171.4z"/>
<path class="st0" d="M184.5,82.7l-70.9-70.9c-7.3-7.3-19.2-7.3-26.5,0L16.1,82.7c-7.3,7.3-7.3,19.2,0,26.5c0.9,0.9,1.9,1.7,2.9,2.4
	V175c0,10.3,8.4,18.8,18.8,18.8h62.5c3.5,0,6.2-2.8,6.2-6.2s-2.8-6.2-6.2-6.2H37.8c-3.4,0-6.2-2.8-6.2-6.2v-67.2
	c0-2.7-1.7-5-4.2-5.9c-3.3-1.1-5-4.7-3.9-7.9c0.3-0.9,0.8-1.7,1.5-2.4l70.9-70.9c2.4-2.4,6.4-2.4,8.8,0l70.9,70.9
	c1.2,1.2,1.8,2.7,1.8,4.4c0,2.7-1.7,5-4.2,5.9c-2.5,0.9-4.2,3.2-4.2,5.9v14.9c0,3.5,2.8,6.3,6.2,6.3c3.5,0,6.2-2.8,6.2-6.3v-11.1
	c5.3-3.5,8.5-9.3,8.4-15.7C190,90.9,188.1,86.2,184.5,82.7z"/>
</svg>
