<?xml version="1.0" encoding="utf-8"?>
<!-- Generator: Adobe Illustrator 21.0.0, SVG Export Plug-In . SVG Version: 6.00 Build 0)  -->
<svg version="1.1" id="图层_1" xmlns="http://www.w3.org/2000/svg" xmlns:xlink="http://www.w3.org/1999/xlink" x="0px" y="0px"
	 viewBox="0 0 200 200" style="enable-background:new 0 0 200 200;" xml:space="preserve">
<style type="text/css">
	.st0{fill:#FFA53D;}
</style>
<path class="st0" d="M181.2,175.4h-65.6l-3-89.7l1.3,0.9c0,4.8,3,9.1,5,11.8c1.7,2.5,4.2,5.5,6.6,8l18,18.9c4.3,4.5,10,7.1,15.6,7.1
	c4.6,0,8.9-1.8,12.1-5.1c3.2-3.3,4.9-7.7,4.7-12.3c-0.2-5.6-3-11.1-7.6-15.3l-19.5-17.3c-5.1-4.5-13.1-9.3-20.5-9.3
	c-3.1,0-5.9,0.9-8.2,2.5l-8.2-5.5l6.8-4.1c0.4,0,0.8,0.1,1.3,0.1c9.2,0,18.9-7.7,22.6-11l19.5-17.3c4.6-4.1,7.4-9.7,7.6-15.2
	c0.2-4.6-1.5-9.1-4.7-12.4c-7.1-7.3-19.8-6.2-27.7,2l-17.9,18.9c-2.4,2.5-5.3,6-7.4,8.7c-1.4,1.8-2.6,3.7-3.7,5.7
	c-1,1.9-3.5,7.1-0.9,12.6l-7.1,4.3l-11.6-7.8c1.5-9.6-8.1-19.7-11.8-23.6L59,12.3c-7.9-8.2-20.7-9.3-27.7-2
	c-3.2,3.3-4.9,7.8-4.7,12.4c0.2,5.6,3,11.1,7.6,15.2l19.5,17.3C62,62.6,69,66.1,75.1,66.1c2.2,0,4.2-0.5,6-1.4l7.3,4.9l-11.3,6.8
	c-2.6-2.6-6.1-4.1-9.8-4.1c-5.8,0-12.2,3.2-20,10.1L28,99.7c-4.6,4.1-7.4,9.7-7.6,15.3c-0.2,4.6,1.5,9,4.7,12.3
	c3.2,3.3,7.5,5.1,12.1,5.1c5.6,0,11.3-2.6,15.6-7.1l17.9-18.9c6.9-7.2,9.7-13.2,10.4-17.8l5.7-3.4l-4,90.2h-64
	c-3.5,0-6.2,2.8-6.2,6.2c0,3.5,2.8,6.2,6.2,6.2h162.5c3.5,0,6.2-2.8,6.2-6.2C187.5,178.2,184.7,175.4,181.2,175.4L181.2,175.4z
	 M119.6,51.2c0.5-1,1.4-2.3,2.5-3.9c1.7-2.3,4.3-5.4,6.4-7.5l17.9-18.9c3-3.2,7.4-4.3,9.6-1.9c0.8,0.8,1.3,2,1.2,3.2
	c-0.1,2.1-1.4,4.6-3.4,6.4l-19.5,17.3c-5.2,4.6-11.1,7.9-14.3,7.9c-0.1,0-0.6,0-0.8-0.2c-0.2-0.2-0.3-0.4-0.4-0.4
	C118.8,53,119,52.4,119.6,51.2z M62,45.8L42.5,28.6c-2-1.8-3.4-4.3-3.5-6.4C39,21,39.4,19.8,40.3,19c0.8-0.9,1.9-1.3,3.1-1.3
	c2.1,0,4.6,1.2,6.5,3.2l17.9,18.9c8.3,8.7,9,12.6,8.1,13.5c-0.2,0.2-0.3,0.3-0.9,0.3C74.1,53.6,70.2,53.1,62,45.8z M61.6,97.9
	l-17.9,18.9c-3,3.2-7.4,4.3-9.6,1.9c-0.8-0.8-1.3-2-1.2-3.2c0.1-2.1,1.4-4.6,3.5-6.4l19.5-17.3c7.3-6.5,10.8-7,11.7-7
	c0.4,0,0.6,0.1,1,0.4C69.5,86.3,68.1,91.1,61.6,97.9L61.6,97.9z M160,109.1c2,1.8,3.4,4.3,3.4,6.4c0.1,1.2-0.4,2.3-1.2,3.2
	c-2.3,2.4-6.6,1.2-9.6-1.9l-17.9-18.9c-2-2.1-3.8-4.3-5.5-6.6c-0.8-1.1-1.5-2.2-2.2-3.3l1.5-2.2c3.1,0.1,8.1,2.6,12.1,6.1L160,109.1
	L160,109.1z M99.4,82.8l0.3-0.5v-0.1l0.3,0.5l3.1,92.8h-7.9C95.2,175.4,99.3,82.8,99.4,82.8z"/>
</svg>
