<?xml version="1.0" encoding="utf-8"?>
<!-- Generator: Adobe Illustrator 21.0.0, SVG Export Plug-In . SVG Version: 6.00 Build 0)  -->
<svg version="1.1" id="图层_1" xmlns="http://www.w3.org/2000/svg" xmlns:xlink="http://www.w3.org/1999/xlink" x="0px" y="0px"
	 viewBox="0 0 200 200" style="enable-background:new 0 0 200 200;" xml:space="preserve">
<style type="text/css">
	.st0{fill:#419EFF;}
</style>
<path class="st0" d="M37.5,31.2c-3.5,0-6.2,2.8-6.2,6.2V75c0,3.5,2.8,6.2,6.2,6.2H75c3.5,0,6.2-2.8,6.2-6.2V37.5
	c0-3.5-2.8-6.2-6.2-6.2H37.5z M37.5,18.8H75c10.4,0,18.8,8.4,18.8,18.8V75c0,10.4-8.4,18.8-18.8,18.8H37.5
	c-10.4,0-18.8-8.4-18.8-18.8V37.5C18.8,27.1,27.1,18.8,37.5,18.8z M37.5,118.8c-3.5,0-6.2,2.8-6.2,6.2v37.5c0,3.5,2.8,6.2,6.2,6.2
	H75c3.5,0,6.2-2.8,6.2-6.2V125c0-3.5-2.8-6.2-6.2-6.2H37.5z M37.5,106.2H75c10.4,0,18.8,8.4,18.8,18.8v37.5
	c0,10.4-8.4,18.8-18.8,18.8H37.5c-10.4,0-18.8-8.4-18.8-18.8V125C18.8,114.6,27.1,106.2,37.5,106.2z M125,118.8
	c-3.5,0-6.2,2.8-6.2,6.2v37.5c0,3.5,2.8,6.2,6.2,6.2h37.5c3.5,0,6.2-2.8,6.2-6.2V125c0-3.5-2.8-6.2-6.2-6.2H125z M125,106.2h37.5
	c10.4,0,18.8,8.4,18.8,18.8v37.5c0,10.4-8.4,18.8-18.8,18.8H125c-10.4,0-18.8-8.4-18.8-18.8V125C106.2,114.6,114.6,106.2,125,106.2z
	 M117.6,52c-2.4,2.4-2.4,6.4,0,8.8c0,0,0,0,0,0l21.9,21.9c2.4,2.4,6.4,2.4,8.8,0c0,0,0,0,0,0l21.9-21.9c2.4-2.4,2.4-6.4,0-8.8
	c0,0,0,0,0,0l-21.9-21.9c-2.4-2.4-6.4-2.4-8.8,0c0,0,0,0,0,0L117.6,52z M108.8,43.2l21.9-21.9c7.3-7.3,19.2-7.3,26.5,0c0,0,0,0,0,0
	l21.9,21.9c7.3,7.3,7.3,19.2,0,26.5c0,0,0,0,0,0l-21.9,21.9c-7.3,7.3-19.2,7.3-26.5,0c0,0,0,0,0,0l-21.9-21.9
	C101.5,62.4,101.5,50.5,108.8,43.2C108.8,43.2,108.8,43.2,108.8,43.2z"/>
</svg>
