<?xml version="1.0" encoding="utf-8"?>
<!-- Generator: Adobe Illustrator 21.0.0, SVG Export Plug-In . SVG Version: 6.00 Build 0)  -->
<svg version="1.1" id="图层_1" xmlns="http://www.w3.org/2000/svg" xmlns:xlink="http://www.w3.org/1999/xlink" x="0px" y="0px"
	 viewBox="0 0 200 200" style="enable-background:new 0 0 200 200;" xml:space="preserve">
<style type="text/css">
	.st0{fill:#00D6B9;}
</style>
<path class="st0" d="M118.6,175c3.5,0,6.2,2.8,6.2,6.2s-2.8,6.2-6.2,6.2H37.5c-10.4,0-18.8-8.4-18.8-18.8V31.2
	c0-10.4,8.4-18.8,18.8-18.8h106.2c10.4,0,18.8,8.4,18.8,18.8c0,3.5-2.8,6.2-6.2,6.2s-6.2-2.8-6.2-6.2s-2.8-6.2-6.2-6.2H37.5
	c-3.5,0-6.2,2.8-6.2,6.2v137.5c0,3.5,2.8,6.2,6.2,6.2H118.6z M162.5,114.4v28.6c0,8.3-12.5,8.3-12.5,0v-28.6
	C150,106.1,162.5,106.1,162.5,114.4z"/>
<path class="st0" d="M56.2,62.5c-3.5,0-6.2-2.8-6.2-6.2s2.8-6.2,6.2-6.2H100c3.5,0,6.2,2.8,6.2,6.2s-2.8,6.2-6.2,6.2H56.2z
	 M56.2,93.8c-3.5,0-6.2-2.8-6.2-6.2s2.8-6.2,6.2-6.2h25c3.5,0,6.2,2.8,6.2,6.2s-2.8,6.2-6.2,6.2H56.2z M124.9,181
	c0,3.5-2.8,6.2-6.2,6.2c-3.5,0-6.2-2.8-6.2-6.2l0.1-24.7c0-10.4,8.4-18.8,18.8-18.8l24.9,0.2c3.5,0,6.2,2.8,6.2,6.2
	c0,3.5-2.8,6.2-6.2,6.2l-24.9-0.2c-3.5,0-6.2,2.8-6.2,6.2L124.9,181z"/>
<path class="st0" d="M124.6,185.1c-2.5,2.4-6.5,2.3-8.8-0.2c-2.4-2.5-2.3-6.5,0.2-8.8l35.2-33.8c2.4-2.4,6.4-2.5,8.8,0
	c2.4,2.4,2.5,6.4,0,8.8c-0.1,0.1-0.1,0.1-0.2,0.2L124.6,185.1L124.6,185.1z M172.1,65.3c2.6-2.2,2.9-6.1,0.7-8.7c0,0,0,0,0,0
	l-0.1-0.1c-2.2-2.6-6.2-2.9-8.8-0.7l-84.1,71.5l-3,10.1l11.4-0.9C88.2,136.6,172.1,65.3,172.1,65.3z M182.1,48.5
	c6.7,7.8,5.9,19.5-1.8,26.3l-85.6,72.7c-1,0.9-2.2,1.4-3.6,1.5l-22.4,1.7c-3.4,0.3-6.4-2.3-6.7-5.7c-0.1-0.8,0-1.5,0.2-2.2l6-20.6
	c0.3-1.2,1-2.2,2-3l85.5-72.7c7.8-6.7,19.6-5.8,26.3,2C182.1,48.4,182.1,48.5,182.1,48.5z"/>
</svg>
