<?xml version="1.0" encoding="utf-8"?>
<!-- Generator: Adobe Illustrator 21.0.0, SVG Export Plug-In . SVG Version: 6.00 Build 0)  -->
<svg version="1.1" id="图层_1" xmlns="http://www.w3.org/2000/svg" xmlns:xlink="http://www.w3.org/1999/xlink" x="0px" y="0px"
	 viewBox="0 0 200 200" style="enable-background:new 0 0 200 200;" xml:space="preserve">
<style type="text/css">
	.st0{fill:#FFA53D;}
</style>
<path class="st0" d="M168.6,75c10.5,0,18.9-8.4,18.9-18.8v-25c0-10.4-8.5-18.8-18.9-18.8H31.4c-10.5,0-18.9,8.4-18.9,18.8v25
	C12.5,66.6,21,75,31.4,75h31.1v25c0,3.5,2.8,6.2,6.2,6.2H125V125H31.4c-10.5,0-18.9,8.4-18.9,18.8v25c0,10.4,8.5,18.8,18.9,18.8
	h137.1c10.5,0,18.9-8.4,18.9-18.8v-25c0-10.4-8.5-18.8-18.9-18.8h-31.1v-25c0-3.5-2.8-6.2-6.2-6.2H75V75H168.6z M168.6,137.5
	c3.5,0,6.3,2.8,6.3,6.2v25c0,3.4-2.8,6.2-6.3,6.2H31.4c-3.5,0-6.3-2.8-6.3-6.2v-25c0-3.4,2.8-6.2,6.3-6.2H168.6z M25.1,56.2v-25
	c0-3.5,2.8-6.2,6.3-6.2h137.1c3.5,0,6.3,2.8,6.3,6.2v25c0,3.5-2.8,6.2-6.3,6.2H31.4C28,62.5,25.1,59.7,25.1,56.2z"/>
<path class="st0" d="M62.5,162.5h75c3.5,0,6.2-2.8,6.2-6.2s-2.8-6.2-6.2-6.2h-75c-3.5,0-6.2,2.8-6.2,6.2S59,162.5,62.5,162.5z
	 M143.8,43.8c0-3.5-2.8-6.2-6.2-6.2h-75c-3.5,0-6.2,2.8-6.2,6.2S59,50,62.5,50h75C141,50,143.8,47.2,143.8,43.8z"/>
</svg>
