<?xml version="1.0" encoding="utf-8"?>
<!-- Generator: Adobe Illustrator 21.0.0, SVG Export Plug-In . SVG Version: 6.00 Build 0)  -->
<svg version="1.1" id="图层_1" xmlns="http://www.w3.org/2000/svg" xmlns:xlink="http://www.w3.org/1999/xlink" x="0px" y="0px"
	 viewBox="0 0 200 200" style="enable-background:new 0 0 200 200;" xml:space="preserve">
<style type="text/css">
	.st0{fill:#FFA53D;}
</style>
<path class="st0" d="M138.1,68.6L99.4,91.1L61.3,69.2C54,65.1,47.8,76,55.1,80.1l38.8,22.2v50.1c0,3.5,2.8,6.2,6.3,6.2
	c3.4,0,6.2-2.8,6.2-6.2v-50.4c0-0.2-0.1-0.4-0.1-0.6l38-22.1C151.6,75.3,145.4,64.4,138.1,68.6z"/>
<path class="st0" d="M171.9,45.4L109.4,8.8c-5.8-3.4-13-3.4-18.9,0L28.1,45.4c-5.8,3.4-9.3,9.6-9.3,16.3v77.7
	c0,6.8,3.6,13.1,9.5,16.4l62.5,35.5c5.7,3.3,12.7,3.3,18.5,0l62.5-35.5c5.9-3.4,9.5-9.6,9.5-16.4V61.7
	C181.3,55,177.7,48.8,171.9,45.4z M168.8,139.4c0,2.3-1.2,4.4-3.2,5.5l-62.5,35.5c-1.9,1.1-4.2,1.1-6.2,0l-62.5-35.5
	c-2-1.1-3.2-3.2-3.2-5.5V61.7c0-2.2,1.2-4.3,3.1-5.4l62.5-36.6c1.9-1.1,4.3-1.1,6.3,0l62.5,36.6c1.9,1.1,3.1,3.2,3.1,5.4V139.4z"/>
</svg>
