<?xml version="1.0" encoding="utf-8"?>
<!-- Generator: Adobe Illustrator 21.0.0, SVG Export Plug-In . SVG Version: 6.00 Build 0)  -->
<svg version="1.1" id="图层_1" xmlns="http://www.w3.org/2000/svg" xmlns:xlink="http://www.w3.org/1999/xlink" x="0px" y="0px"
	 viewBox="0 0 200 200" style="enable-background:new 0 0 200 200;" xml:space="preserve">
<style type="text/css">
	.st0{fill:#F76B64;}
</style>
<path class="st0" d="M121.1,157.5c-3.1-0.4-5.5-3-5.5-6.2v-15.8c0-2,1-3.9,2.6-5.1c10.3-7.5,19.4-19.5,24.4-33
	c0.6-1.8,2.1-3.1,3.8-3.8c1.9-0.7,4.2-4.7,6.3-13.8c1.2-4.9-0.2-8-3.2-9.8c-1.7-1-2.8-2.8-3-4.8c-2.7-29.8-19.5-46.4-46.1-46.4
	c-27,0-44.5,17.2-47,47.3c-0.2,2-1.3,3.8-2.9,4.8c-3.2,2-4.4,4.6-3.2,8.6c2.2,7.6,4.7,11.8,7.2,13.4c1.2,0.7,2.1,1.9,2.6,3.2
	c4.9,13.8,14.1,26.1,24.8,33.9c1.6,1.2,2.6,3,2.5,5v16.3c0,3.2-2.4,5.8-5.5,6.2c-24.4,2.9-41.5,10.6-44.1,17.3
	c0.5,0.2,1,0.4,1.6,0.6c3.4,1.2,8.5,2.2,15.1,3.1c12.8,1.7,30.3,2.7,48.6,2.7s35.8-1,48.6-2.7c6.6-0.9,11.7-2,15.1-3.1
	c0.6-0.2,1.2-0.4,1.6-0.6C162.7,168.1,145.6,160.3,121.1,157.5L121.1,157.5z M128.1,145.8c29.6,4.4,50,15.5,50,30.7
	c0,13.1-30.5,17.2-78.1,17.2s-78.1-4.1-78.1-17.2c0-15.3,20.4-26.3,50-30.7v-7.7c-11.1-8.9-20.4-21.7-25.9-36
	c-4.7-3.8-8-10-10.7-19.1c-2.5-8.5,0-15.9,5.9-20.8c4-34.7,26.4-55.9,59.2-55.9c32.3,0,54.1,20.6,58.2,55c5.8,4.9,8.3,12.5,6.2,21.5
	c-2.6,11.1-6,18.1-11.5,21.4c-5.6,13.8-14.6,26-25.3,34.5L128.1,145.8L128.1,145.8z"/>
</svg>
