<?xml version="1.0" encoding="utf-8"?>
<!-- Generator: Adobe Illustrator 21.0.0, SVG Export Plug-In . SVG Version: 6.00 Build 0)  -->
<svg version="1.1" id="图层_1" xmlns="http://www.w3.org/2000/svg" xmlns:xlink="http://www.w3.org/1999/xlink" x="0px" y="0px"
	 viewBox="0 0 200 200" style="enable-background:new 0 0 200 200;" xml:space="preserve">
<style type="text/css">
	.st0{fill:#52A6FF;}
</style>
<path class="st0" d="M168.8,12.5H31.2c-10.4,0-18.8,8.4-18.8,18.8v112.5c0,10.4,8.4,18.8,18.8,18.8h62.5V175H50
	c-3.5,0-6.2,2.8-6.2,6.2s2.8,6.2,6.2,6.2h100c3.5,0,6.2-2.8,6.2-6.2s-2.8-6.2-6.2-6.2h-43.8v-12.5h62.5c10.4,0,18.8-8.4,18.8-18.8
	V31.2C187.5,20.9,179.1,12.5,168.8,12.5z M31.2,25h137.5c3.5,0,6.2,2.8,6.2,6.2v87.5H25V31.2C25,27.8,27.8,25,31.2,25z M175,143.8
	c0,3.5-2.8,6.2-6.2,6.2H31.2c-3.5,0-6.2-2.8-6.2-6.2v-12.5h150V143.8z"/>
</svg>
