<?xml version="1.0" encoding="utf-8"?>
<!-- Generator: Adobe Illustrator 21.0.0, SVG Export Plug-In . SVG Version: 6.00 Build 0)  -->
<svg version="1.1" id="图层_1" xmlns="http://www.w3.org/2000/svg" xmlns:xlink="http://www.w3.org/1999/xlink" x="0px" y="0px"
	 viewBox="0 0 200 200" style="enable-background:new 0 0 200 200;" xml:space="preserve">
<style type="text/css">
	.st0{fill:#F76B64;}
</style>
<path class="st0" d="M37.5,162.5c-3.5,0-6.2,2.8-6.2,6.2s2.8,6.2,6.2,6.2h125c3.5,0,6.2-2.8,6.2-6.2s-2.8-6.2-6.2-6.2H37.5z
	 M37.5,150h125c10.4,0,18.8,8.4,18.8,18.8s-8.4,18.8-18.8,18.8h-125c-10.4,0-18.8-8.4-18.8-18.8S27.1,150,37.5,150z"/>
<path class="st0" d="M150,40.6c0,5.2,4.2,9.4,9.4,9.4s9.4-4.2,9.4-9.4s-4.2-9.4-9.4-9.4S150,35.4,150,40.6z"/>
<path class="st0" d="M31.2,40.6c0,5.2,4.2,9.4,9.4,9.4s9.4-4.2,9.4-9.4s-4.2-9.4-9.4-9.4S31.2,35.4,31.2,40.6z"/>
<path class="st0" d="M93.8,118.8c0-3.5,2.8-6.2,6.2-6.2c3.5,0,6.2,2.8,6.2,6.2V150c0,3.5-2.8,6.2-6.2,6.2c-3.5,0-6.2-2.8-6.2-6.2
	V118.8z"/>
<path class="st0" d="M100,125c-12.1,0-21.9-9.8-21.9-21.9s9.8-21.9,21.9-21.9s21.9,9.8,21.9,21.9S112.1,125,100,125z M100,112.5
	c5.2,0,9.4-4.2,9.4-9.4c0-5.2-4.2-9.4-9.4-9.4c-5.2,0-9.4,4.2-9.4,9.4C90.6,108.3,94.8,112.5,100,112.5z M168.8,93.8
	c-3.5,0-6.2-2.8-6.2-6.2s2.8-6.2,6.2-6.2h18.8c3.5,0,6.2,2.8,6.2,6.2s-2.8,6.2-6.2,6.2H168.8z M12.5,93.8c-3.5,0-6.2-2.8-6.2-6.2
	s2.8-6.2,6.2-6.2h18.8c3.5,0,6.2,2.8,6.2,6.2s-2.8,6.2-6.2,6.2H12.5z M93.8,12.5c0-3.5,2.8-6.2,6.2-6.2c3.5,0,6.2,2.8,6.2,6.2v18.8
	c0,3.5-2.8,6.2-6.2,6.2c-3.5,0-6.2-2.8-6.2-6.2V12.5z"/>
<path class="st0" d="M53.2,156.2H40.7V100c0-32.8,26.6-59.4,59.4-59.4s59.4,26.6,59.4,59.4v56.2H147V100c0-25.9-21-46.9-46.9-46.9
	s-46.9,21-46.9,46.9V156.2z"/>
</svg>
