<?xml version="1.0" encoding="utf-8"?>
<!-- Generator: Adobe Illustrator 21.0.0, SVG Export Plug-In . SVG Version: 6.00 Build 0)  -->
<svg version="1.1" id="图层_1" xmlns="http://www.w3.org/2000/svg" xmlns:xlink="http://www.w3.org/1999/xlink" x="0px" y="0px"
	 viewBox="0 0 200 200" style="enable-background:new 0 0 200 200;" xml:space="preserve">
<style type="text/css">
	.st0{fill:#DB66DB;}
</style>
<path class="st0" d="M56.2,62.5c-3.5,0-6.2-2.8-6.2-6.2s2.8-6.2,6.2-6.2h87.5c3.5,0,6.2,2.8,6.2,6.2s-2.8,6.2-6.2,6.2H56.2z
	 M56.2,106.2c-3.5,0-6.2-2.8-6.2-6.2c0-3.5,2.8-6.2,6.2-6.2h87.5c3.5,0,6.2,2.8,6.2,6.2c0,3.5-2.8,6.2-6.2,6.2H56.2z M56.2,150
	c-3.5,0-6.2-2.8-6.2-6.2s2.8-6.2,6.2-6.2h25c3.5,0,6.2,2.8,6.2,6.2s-2.8,6.2-6.2,6.2H56.2z"/>
<path class="st0" d="M157.8,156.7c2.6-2.3,6.6-2,8.8,0.6c2.3,2.6,2,6.6-0.6,8.8L136,192.2c-1.1,1-2.6,1.5-4.1,1.5H38.1
	c-10.7,0-19.3-8.9-19.3-19.7V26c0-10.8,8.6-19.7,19.3-19.7h123.8c10.7,0,19.3,8.9,19.3,19.7v110.2c0,3.5-2.8,6.2-6.2,6.2
	s-6.2-2.8-6.2-6.2V26c0-4-3.1-7.2-6.8-7.2H38.1c-3.7,0-6.8,3.2-6.8,7.2V174c0,4,3.1,7.2,6.8,7.2h91.4L157.8,156.7z"/>
<path class="st0" d="M137.5,187.3c0,3.5-2.8,6.2-6.2,6.2c-3.5,0-6.2-2.8-6.2-6.2V151c0-10.8,8.6-19.7,19.3-19.7h30.8
	c3.5,0,6.2,2.8,6.2,6.2s-2.8,6.2-6.2,6.2h-30.8c-3.7,0-6.8,3.2-6.8,7.2V187.3L137.5,187.3z"/>
</svg>
