<?xml version="1.0" encoding="utf-8"?>
<!-- Generator: Adobe Illustrator 21.0.0, SVG Export Plug-In . SVG Version: 6.00 Build 0)  -->
<svg version="1.1" id="图层_1" xmlns="http://www.w3.org/2000/svg" xmlns:xlink="http://www.w3.org/1999/xlink" x="0px" y="0px"
	 viewBox="0 0 200 200" style="enable-background:new 0 0 200 200;" xml:space="preserve">
<style type="text/css">
	.st0{fill:#00D6B9;}
</style>
<path class="st0" d="M85,63.8c-2.8-2.1-6.7-1.5-8.7,1.2L57.5,90c-1.7,2.2-1.7,5.3,0,7.5l18.8,25c2.1,2.8,6,3.3,8.8,1.2
	c2.8-2.1,3.3-6,1.2-8.8L70.3,93.8l15.9-21.2C88.3,69.7,87.8,65.8,85,63.8z M146.2,123.7c2.8,2.1,6.7,1.5,8.8-1.2l18.8-25
	c1.7-2.2,1.7-5.3,0-7.5L155,65c-2.1-2.8-6-3.3-8.8-1.3c-2.8,2.1-3.3,6-1.2,8.8l15.9,21.2L145,115
	C142.9,117.8,143.5,121.7,146.2,123.7L146.2,123.7z M115.8,61.1l-12.5,56.3c-0.8,3.4,1.3,6.7,4.6,7.5c3.4,0.8,6.7-1.3,7.5-4.6
	c0-0.1,0-0.1,0-0.2L128,63.9c0.8-3.4-1.3-6.7-4.6-7.5c-3.4-0.8-6.7,1.3-7.5,4.6C115.8,61,115.8,61.1,115.8,61.1z"/>
<path class="st0" d="M168.8,124.3c-3.5,0-6.2,2.8-6.2,6.2v13.2h-18.8c-10.4,0-18.8,8.4-18.8,18.8v18.8H44.3c-3.8,0-6.8-3.2-6.8-7.2
	V26c0-4,3.1-7.2,6.8-7.2h111.3c3.8,0,6.9,3.2,6.9,7.2v24.3c0,3.5,2.8,6.2,6.2,6.2s6.2-2.8,6.2-6.2V26c0-10.9-8.7-19.7-19.4-19.7
	H44.3C33.7,6.2,25,15.1,25,26V174c0,10.9,8.7,19.7,19.3,19.7h85c0.3,0,0.6-0.1,0.9-0.2c1.8,0.3,3.6,0,5.1-1.3l37.5-31.2
	c1.9-1.6,2.7-4.2,2-6.6c0.1-0.4,0.3-0.9,0.3-1.3v-22.6C175,127.1,172.2,124.3,168.8,124.3z M143.8,156.2H159l-21.5,17.9v-11.7
	C137.5,159,140.3,156.2,143.8,156.2z"/>
</svg>
